<svg width="279" height="132" viewBox="0 0 279 132" fill="none" xmlns="http://www.w3.org/2000/svg">
<g clip-path="url(#clip0)">
<circle cx="3.5" cy="3.5" r="3.5" fill="#DEE2E6"/>
<circle cx="3.5" cy="19.1" r="3.5" fill="#DEE2E6"/>
<circle cx="3.5" cy="34.7" r="3.5" fill="#DEE2E6"/>
<circle cx="3.5" cy="50.3" r="3.5" fill="#DEE2E6"/>
<circle cx="3.5" cy="65.9" r="3.5" fill="#DEE2E6"/>
<circle cx="3.5" cy="81.5" r="3.5" fill="#DEE2E6"/>
<circle cx="3.5" cy="97.1" r="3.5" fill="#DEE2E6"/>
<circle cx="3.5" cy="112.7" r="3.5" fill="#DEE2E6"/>
<circle cx="3.5" cy="128.3" r="3.5" fill="#DEE2E6"/>
<circle cx="19.5" cy="3.5" r="3.5" fill="#DEE2E6"/>
<circle cx="19.5" cy="19.1" r="3.5" fill="#DEE2E6"/>
<circle cx="19.5" cy="34.7" r="3.5" fill="#DEE2E6"/>
<circle cx="19.5" cy="50.3" r="3.5" fill="#DEE2E6"/>
<circle cx="19.5" cy="65.9" r="3.5" fill="#DEE2E6"/>
<circle cx="19.5" cy="81.5" r="3.5" fill="#DEE2E6"/>
<circle cx="19.5" cy="97.1" r="3.5" fill="#DEE2E6"/>
<circle cx="19.5" cy="112.7" r="3.5" fill="#DEE2E6"/>
<circle cx="19.5" cy="128.3" r="3.5" fill="#DEE2E6"/>
<circle cx="35.5" cy="3.5" r="3.5" fill="#DEE2E6"/>
<circle cx="35.5" cy="19.1" r="3.5" fill="#DEE2E6"/>
<circle cx="35.5" cy="34.7" r="3.5" fill="#DEE2E6"/>
<circle cx="35.5" cy="50.3" r="3.5" fill="#DEE2E6"/>
<circle cx="35.5" cy="65.9" r="3.5" fill="#DEE2E6"/>
<circle cx="35.5" cy="81.5" r="3.5" fill="#DEE2E6"/>
<circle cx="35.5" cy="97.1" r="3.5" fill="#DEE2E6"/>
<circle cx="35.5" cy="112.7" r="3.5" fill="#DEE2E6"/>
<circle cx="35.5" cy="128.3" r="3.5" fill="#DEE2E6"/>
<circle cx="51.5" cy="3.5" r="3.5" fill="#DEE2E6"/>
<circle cx="51.5" cy="19.1" r="3.5" fill="#DEE2E6"/>
<circle cx="51.5" cy="34.7" r="3.5" fill="#DEE2E6"/>
<circle cx="51.5" cy="50.3" r="3.5" fill="#DEE2E6"/>
<circle cx="51.5" cy="65.9" r="3.5" fill="#DEE2E6"/>
<circle cx="51.5" cy="81.5" r="3.5" fill="#DEE2E6"/>
<circle cx="51.5" cy="97.1" r="3.5" fill="#DEE2E6"/>
<circle cx="51.5" cy="112.7" r="3.5" fill="#DEE2E6"/>
<circle cx="51.5" cy="128.3" r="3.5" fill="#DEE2E6"/>
<circle cx="67.5" cy="3.5" r="3.5" fill="#DEE2E6"/>
<circle cx="67.5" cy="19.1" r="3.5" fill="#DEE2E6"/>
<circle cx="67.5" cy="34.7" r="3.5" fill="#DEE2E6"/>
<circle cx="67.5" cy="50.3" r="3.5" fill="#DEE2E6"/>
<circle cx="67.5" cy="65.9" r="3.5" fill="#DEE2E6"/>
<circle cx="67.5" cy="81.5" r="3.5" fill="#DEE2E6"/>
<circle cx="67.5" cy="97.1" r="3.5" fill="#DEE2E6"/>
<circle cx="67.5" cy="112.7" r="3.5" fill="#DEE2E6"/>
<circle cx="67.5" cy="128.3" r="3.5" fill="#DEE2E6"/>
<circle cx="83.5" cy="3.5" r="3.5" fill="#DEE2E6"/>
<circle cx="83.5" cy="19.1" r="3.5" fill="#DEE2E6"/>
<circle cx="83.5" cy="34.7" r="3.5" fill="#DEE2E6"/>
<circle cx="83.5" cy="50.3" r="3.5" fill="#DEE2E6"/>
<circle cx="83.5" cy="65.9" r="3.5" fill="#DEE2E6"/>
<circle cx="83.5" cy="81.5" r="3.5" fill="#DEE2E6"/>
<circle cx="83.5" cy="97.1" r="3.5" fill="#DEE2E6"/>
<circle cx="83.5" cy="112.7" r="3.5" fill="#DEE2E6"/>
<circle cx="83.5" cy="128.3" r="3.5" fill="#DEE2E6"/>
<circle cx="99.5" cy="3.5" r="3.5" fill="#DEE2E6"/>
<circle cx="99.5" cy="19.1" r="3.5" fill="#DEE2E6"/>
<circle cx="99.5" cy="34.7" r="3.5" fill="#DEE2E6"/>
<circle cx="99.5" cy="50.3" r="3.5" fill="#DEE2E6"/>
<circle cx="99.5" cy="65.9" r="3.5" fill="#DEE2E6"/>
<circle cx="99.5" cy="81.5" r="3.5" fill="#DEE2E6"/>
<circle cx="99.5" cy="97.1" r="3.5" fill="#DEE2E6"/>
<circle cx="99.5" cy="112.7" r="3.5" fill="#DEE2E6"/>
<circle cx="99.5" cy="128.3" r="3.5" fill="#DEE2E6"/>
<circle cx="115.5" cy="3.5" r="3.5" fill="#DEE2E6"/>
<circle cx="115.5" cy="19.1" r="3.5" fill="#DEE2E6"/>
<circle cx="115.5" cy="34.7" r="3.5" fill="#DEE2E6"/>
<circle cx="115.5" cy="50.3" r="3.5" fill="#DEE2E6"/>
<circle cx="115.5" cy="65.9" r="3.5" fill="#DEE2E6"/>
<circle cx="115.5" cy="81.5" r="3.5" fill="#DEE2E6"/>
<circle cx="115.5" cy="97.1" r="3.5" fill="#DEE2E6"/>
<circle cx="115.5" cy="112.7" r="3.5" fill="#DEE2E6"/>
<circle cx="115.5" cy="128.3" r="3.5" fill="#DEE2E6"/>
<circle cx="131.5" cy="3.5" r="3.5" fill="#DEE2E6"/>
<circle cx="131.5" cy="19.1" r="3.5" fill="#DEE2E6"/>
<circle cx="131.5" cy="34.7" r="3.5" fill="#DEE2E6"/>
<circle cx="131.5" cy="50.3" r="3.5" fill="#DEE2E6"/>
<circle cx="131.5" cy="65.9" r="3.5" fill="#DEE2E6"/>
<circle cx="131.5" cy="81.5" r="3.5" fill="#DEE2E6"/>
<circle cx="131.5" cy="97.1" r="3.5" fill="#DEE2E6"/>
<circle cx="131.5" cy="112.7" r="3.5" fill="#DEE2E6"/>
<circle cx="131.5" cy="128.3" r="3.5" fill="#DEE2E6"/>
<circle cx="147.5" cy="3.5" r="3.5" fill="#DEE2E6"/>
<circle cx="147.5" cy="19.1" r="3.5" fill="#DEE2E6"/>
<circle cx="147.5" cy="34.7" r="3.5" fill="#DEE2E6"/>
<circle cx="147.5" cy="50.3" r="3.5" fill="#DEE2E6"/>
<circle cx="147.5" cy="65.9" r="3.5" fill="#DEE2E6"/>
<circle cx="147.5" cy="81.5" r="3.5" fill="#DEE2E6"/>
<circle cx="147.5" cy="97.1" r="3.5" fill="#DEE2E6"/>
<circle cx="147.5" cy="112.7" r="3.5" fill="#DEE2E6"/>
<circle cx="147.5" cy="128.3" r="3.5" fill="#DEE2E6"/>
<circle cx="163.5" cy="3.5" r="3.5" fill="#DEE2E6"/>
<circle cx="163.5" cy="19.1" r="3.5" fill="#DEE2E6"/>
<circle cx="163.5" cy="34.7" r="3.5" fill="#DEE2E6"/>
<circle cx="163.5" cy="50.3" r="3.5" fill="#DEE2E6"/>
<circle cx="163.5" cy="65.9" r="3.5" fill="#DEE2E6"/>
<circle cx="163.5" cy="81.5" r="3.5" fill="#DEE2E6"/>
<circle cx="163.5" cy="97.1" r="3.5" fill="#DEE2E6"/>
<circle cx="163.5" cy="112.7" r="3.5" fill="#DEE2E6"/>
<circle cx="163.5" cy="128.3" r="3.5" fill="#DEE2E6"/>
<circle cx="179.5" cy="3.5" r="3.5" fill="#DEE2E6"/>
<circle cx="179.5" cy="19.1" r="3.5" fill="#DEE2E6"/>
<circle cx="179.5" cy="34.7" r="3.5" fill="#DEE2E6"/>
<circle cx="179.5" cy="50.3" r="3.5" fill="#DEE2E6"/>
<circle cx="179.5" cy="65.9" r="3.5" fill="#DEE2E6"/>
<circle cx="179.5" cy="81.5" r="3.5" fill="#DEE2E6"/>
<circle cx="179.5" cy="97.1" r="3.5" fill="#DEE2E6"/>
<circle cx="179.5" cy="112.7" r="3.5" fill="#DEE2E6"/>
<circle cx="179.5" cy="128.3" r="3.5" fill="#DEE2E6"/>
<circle cx="195.5" cy="3.5" r="3.5" fill="#DEE2E6"/>
<circle cx="195.5" cy="19.1" r="3.5" fill="#DEE2E6"/>
<circle cx="195.5" cy="34.7" r="3.5" fill="#DEE2E6"/>
<circle cx="195.5" cy="50.3" r="3.5" fill="#DEE2E6"/>
<circle cx="195.5" cy="65.9" r="3.5" fill="#DEE2E6"/>
<circle cx="195.5" cy="81.5" r="3.5" fill="#DEE2E6"/>
<circle cx="195.5" cy="97.1" r="3.5" fill="#DEE2E6"/>
<circle cx="195.5" cy="112.7" r="3.5" fill="#DEE2E6"/>
<circle cx="195.5" cy="128.3" r="3.5" fill="#DEE2E6"/>
<circle cx="211.5" cy="3.5" r="3.5" fill="#DEE2E6"/>
<circle cx="211.5" cy="19.1" r="3.5" fill="#DEE2E6"/>
<circle cx="211.5" cy="34.7" r="3.5" fill="#DEE2E6"/>
<circle cx="211.5" cy="50.3" r="3.5" fill="#DEE2E6"/>
<circle cx="211.5" cy="65.9" r="3.5" fill="#DEE2E6"/>
<circle cx="211.5" cy="81.5" r="3.5" fill="#DEE2E6"/>
<circle cx="211.5" cy="97.1" r="3.5" fill="#DEE2E6"/>
<circle cx="211.5" cy="112.7" r="3.5" fill="#DEE2E6"/>
<circle cx="211.5" cy="128.3" r="3.5" fill="#DEE2E6"/>
<circle cx="227.5" cy="3.5" r="3.5" fill="#DEE2E6"/>
<circle cx="227.5" cy="19.1" r="3.5" fill="#DEE2E6"/>
<circle cx="227.5" cy="34.7" r="3.5" fill="#DEE2E6"/>
<circle cx="227.5" cy="50.3" r="3.5" fill="#DEE2E6"/>
<circle cx="227.5" cy="65.9" r="3.5" fill="#DEE2E6"/>
<circle cx="227.5" cy="81.5" r="3.5" fill="#DEE2E6"/>
<circle cx="227.5" cy="97.1" r="3.5" fill="#DEE2E6"/>
<circle cx="227.5" cy="112.7" r="3.5" fill="#DEE2E6"/>
<circle cx="227.5" cy="128.3" r="3.5" fill="#DEE2E6"/>
<circle cx="243.5" cy="3.5" r="3.5" fill="#DEE2E6"/>
<circle cx="243.5" cy="19.1" r="3.5" fill="#DEE2E6"/>
<circle cx="243.5" cy="34.7" r="3.5" fill="#DEE2E6"/>
<circle cx="243.5" cy="50.3" r="3.5" fill="#DEE2E6"/>
<circle cx="243.5" cy="65.9" r="3.5" fill="#DEE2E6"/>
<circle cx="243.5" cy="81.5" r="3.5" fill="#DEE2E6"/>
<circle cx="243.5" cy="97.1" r="3.5" fill="#DEE2E6"/>
<circle cx="243.5" cy="112.7" r="3.5" fill="#DEE2E6"/>
<circle cx="243.5" cy="128.3" r="3.5" fill="#DEE2E6"/>
<circle cx="259.5" cy="3.5" r="3.5" fill="#DEE2E6"/>
<circle cx="259.5" cy="19.1" r="3.5" fill="#DEE2E6"/>
<circle cx="259.5" cy="34.7" r="3.5" fill="#DEE2E6"/>
<circle cx="259.5" cy="50.3" r="3.5" fill="#DEE2E6"/>
<circle cx="259.5" cy="65.9" r="3.5" fill="#DEE2E6"/>
<circle cx="259.5" cy="81.5" r="3.5" fill="#DEE2E6"/>
<circle cx="259.5" cy="97.1" r="3.5" fill="#DEE2E6"/>
<circle cx="259.5" cy="112.7" r="3.5" fill="#DEE2E6"/>
<circle cx="259.5" cy="128.3" r="3.5" fill="#DEE2E6"/>
<circle cx="275.5" cy="3.5" r="3.5" fill="#DEE2E6"/>
<circle cx="275.5" cy="19.1" r="3.5" fill="#DEE2E6"/>
<circle cx="275.5" cy="34.7" r="3.5" fill="#DEE2E6"/>
<circle cx="275.5" cy="50.3" r="3.5" fill="#DEE2E6"/>
<circle cx="275.5" cy="65.9" r="3.5" fill="#DEE2E6"/>
<circle cx="275.5" cy="81.5" r="3.5" fill="#DEE2E6"/>
<circle cx="275.5" cy="97.1" r="3.5" fill="#DEE2E6"/>
<circle cx="275.5" cy="112.7" r="3.5" fill="#DEE2E6"/>
<circle cx="275.5" cy="128.3" r="3.5" fill="#DEE2E6"/>
</g>
<defs>
<clipPath id="clip0">
<rect width="279" height="131.8" fill="white"/>
</clipPath>
</defs>
</svg>
